<svg width="272" height="43" viewBox="0 0 272 43" fill="none" xmlns="http://www.w3.org/2000/svg">
<path d="M8.97 37.37C7.47 37.37 6.11 36.98 4.89 36.2C3.67 35.44 2.7 34.41 1.98 33.11C1.28 31.79 0.93 30.32 0.93 28.7C0.93 27.18 1.21 25.81 1.77 24.59C2.33 23.35 3.09 22.29 4.05 21.41C5.03 20.53 6.14 19.86 7.38 19.4C8.62 18.92 9.92 18.68 11.28 18.68C12.42 18.68 13.54 18.84 14.64 19.16C14.72 18.74 14.79 18.32 14.85 17.9L19.98 18.77C19.84 19.15 19.7 19.72 19.56 20.48C19.42 21.24 19.3 22.09 19.2 23.03C19.12 23.97 19.05 24.91 18.99 25.85C18.93 26.79 18.9 27.64 18.9 28.4C18.9 29.02 18.94 29.63 19.02 30.23C19.12 30.81 19.32 31.29 19.62 31.67C19.92 32.03 20.38 32.21 21 32.21H21.42L20.67 37.43C19.35 37.43 18.26 37.2 17.4 36.74C16.54 36.3 15.85 35.7 15.33 34.94C14.47 35.9 13.49 36.54 12.39 36.86C11.29 37.2 10.15 37.37 8.97 37.37ZM5.85 29.3C5.95 30.26 6.34 31.03 7.02 31.61C7.72 32.17 8.6 32.45 9.66 32.45C10.68 32.45 11.53 32.18 12.21 31.64C12.89 31.08 13.45 30.32 13.89 29.36C13.87 29.04 13.86 28.71 13.86 28.37C13.86 27.67 13.88 26.95 13.92 26.21C13.96 25.47 14.01 24.74 14.07 24.02C13.23 23.7 12.35 23.54 11.43 23.54C10.35 23.54 9.38 23.76 8.52 24.2C7.68 24.62 7.02 25.21 6.54 25.97C6.06 26.73 5.82 27.61 5.82 28.61C5.82 28.73 5.82 28.85 5.82 28.97C5.82 29.09 5.83 29.2 5.85 29.3ZM23.5655 37.16C23.5655 35.52 23.5955 33.76 23.6555 31.88C23.7155 30 23.7955 28.09 23.8955 26.15C23.9955 24.21 24.0955 22.31 24.1955 20.45C24.3155 18.59 24.4355 16.84 24.5555 15.2C24.6755 13.54 24.7755 12.07 24.8555 10.79L29.8655 10.85C29.7455 11.99 29.6255 13.27 29.5055 14.69C29.4055 16.11 29.3055 17.62 29.2055 19.22C29.7855 18.98 30.4055 18.8 31.0655 18.68C31.7455 18.54 32.4755 18.47 33.2555 18.47C34.3155 18.47 35.3255 18.65 36.2855 19.01C37.2655 19.35 38.1455 19.88 38.9255 20.6C39.7055 21.32 40.3155 22.25 40.7555 23.39C41.2155 24.53 41.4455 25.9 41.4455 27.5C41.4455 29.2 41.2055 30.67 40.7255 31.91C40.2455 33.15 39.5955 34.17 38.7755 34.97C37.9555 35.77 37.0255 36.36 35.9855 36.74C34.9655 37.14 33.9155 37.34 32.8355 37.34C32.0155 37.34 31.2455 37.23 30.5255 37.01C29.8255 36.79 29.1755 36.5 28.5755 36.14C28.5755 36.46 28.5755 36.78 28.5755 37.1L23.5655 37.16ZM32.5655 23.51C31.0655 23.51 29.8455 23.95 28.9055 24.83C28.8255 26.67 28.7555 28.47 28.6955 30.23C29.6755 31.53 31.0455 32.18 32.8055 32.18C33.3855 32.18 33.9655 32.05 34.5455 31.79C35.1455 31.51 35.6455 31.04 36.0455 30.38C36.4455 29.72 36.6455 28.8 36.6455 27.62C36.6455 26.28 36.2955 25.26 35.5955 24.56C34.9155 23.86 33.9055 23.51 32.5655 23.51ZM50.141 37.46C48.861 37.46 47.801 37.23 46.961 36.77C46.141 36.33 45.481 35.72 44.981 34.94C44.501 34.16 44.141 33.29 43.901 32.33C43.681 31.35 43.531 30.34 43.451 29.3C43.391 28.24 43.361 27.22 43.361 26.24C43.361 25.12 43.391 23.98 43.451 22.82C43.531 21.66 43.611 20.39 43.691 19.01L49.181 18.68C49.121 19.1 49.031 19.73 48.911 20.57C48.791 21.41 48.681 22.37 48.581 23.45C48.481 24.53 48.431 25.66 48.431 26.84C48.431 28.78 48.601 30.22 48.941 31.16C49.281 32.08 49.791 32.54 50.471 32.54C51.831 32.54 52.831 31.55 53.471 29.57C54.111 27.59 54.431 24.46 54.431 20.18V18.8L56.981 18.74L60.071 18.68C59.791 20.56 59.581 22.29 59.441 23.87C59.301 25.45 59.211 26.78 59.171 27.86C59.131 28.92 59.111 29.63 59.111 29.99C59.111 30.91 59.191 31.57 59.351 31.97C59.511 32.35 59.791 32.54 60.191 32.54C60.391 32.54 60.611 32.5 60.851 32.42C61.091 32.34 61.371 32.2 61.691 32L61.481 37.16C60.721 37.28 60.061 37.34 59.501 37.34C58.541 37.34 57.751 37.16 57.131 36.8C56.531 36.44 56.051 35.96 55.691 35.36C55.071 36.02 54.301 36.53 53.381 36.89C52.481 37.27 51.401 37.46 50.141 37.46ZM85.4055 37.37C83.9055 37.37 82.5455 36.98 81.3255 36.2C80.1055 35.44 79.1355 34.41 78.4155 33.11C77.7155 31.79 77.3655 30.32 77.3655 28.7C77.3655 27.18 77.6455 25.81 78.2055 24.59C78.7655 23.35 79.5255 22.29 80.4855 21.41C81.4655 20.53 82.5755 19.86 83.8155 19.4C85.0555 18.92 86.3555 18.68 87.7155 18.68C88.8555 18.68 89.9755 18.84 91.0755 19.16C91.1555 18.74 91.2255 18.32 91.2855 17.9L96.4155 18.77C96.2755 19.15 96.1355 19.72 95.9955 20.48C95.8555 21.24 95.7355 22.09 95.6355 23.03C95.5555 23.97 95.4855 24.91 95.4255 25.85C95.3655 26.79 95.3355 27.64 95.3355 28.4C95.3355 29.02 95.3755 29.63 95.4555 30.23C95.5555 30.81 95.7555 31.29 96.0555 31.67C96.3555 32.03 96.8155 32.21 97.4355 32.21H97.8555L97.1055 37.43C95.7855 37.43 94.6955 37.2 93.8355 36.74C92.9755 36.3 92.2855 35.7 91.7655 34.94C90.9055 35.9 89.9255 36.54 88.8255 36.86C87.7255 37.2 86.5855 37.37 85.4055 37.37ZM82.2855 29.3C82.3855 30.26 82.7755 31.03 83.4555 31.61C84.1555 32.17 85.0355 32.45 86.0955 32.45C87.1155 32.45 87.9655 32.18 88.6455 31.64C89.3255 31.08 89.8855 30.32 90.3255 29.36C90.3055 29.04 90.2955 28.71 90.2955 28.37C90.2955 27.67 90.3155 26.95 90.3555 26.21C90.3955 25.47 90.4455 24.74 90.5055 24.02C89.6655 23.7 88.7855 23.54 87.8655 23.54C86.7855 23.54 85.8155 23.76 84.9555 24.2C84.1155 24.62 83.4555 25.21 82.9755 25.97C82.4955 26.73 82.2555 27.61 82.2555 28.61C82.2555 28.73 82.2555 28.85 82.2555 28.97C82.2555 29.09 82.2655 29.2 82.2855 29.3ZM100.001 37.16C100.001 35.52 100.031 33.76 100.091 31.88C100.151 30 100.231 28.09 100.331 26.15C100.431 24.21 100.531 22.31 100.631 20.45C100.751 18.59 100.871 16.84 100.991 15.2C101.111 13.54 101.211 12.07 101.291 10.79L106.301 10.85C106.181 11.99 106.061 13.27 105.941 14.69C105.841 16.11 105.741 17.62 105.641 19.22C106.221 18.98 106.841 18.8 107.501 18.68C108.181 18.54 108.911 18.47 109.691 18.47C110.751 18.47 111.761 18.65 112.721 19.01C113.701 19.35 114.581 19.88 115.361 20.6C116.141 21.32 116.751 22.25 117.191 23.39C117.651 24.53 117.881 25.9 117.881 27.5C117.881 29.2 117.641 30.67 117.161 31.91C116.681 33.15 116.031 34.17 115.211 34.97C114.391 35.77 113.461 36.36 112.421 36.74C111.401 37.14 110.351 37.34 109.271 37.34C108.451 37.34 107.681 37.23 106.961 37.01C106.261 36.79 105.611 36.5 105.011 36.14C105.011 36.46 105.011 36.78 105.011 37.1L100.001 37.16ZM109.001 23.51C107.501 23.51 106.281 23.95 105.341 24.83C105.261 26.67 105.191 28.47 105.131 30.23C106.111 31.53 107.481 32.18 109.241 32.18C109.821 32.18 110.401 32.05 110.981 31.79C111.581 31.51 112.081 31.04 112.481 30.38C112.881 29.72 113.081 28.8 113.081 27.62C113.081 26.28 112.731 25.26 112.031 24.56C111.351 23.86 110.341 23.51 109.001 23.51ZM127.477 37.37C126.437 37.37 125.417 37.19 124.417 36.83C123.437 36.47 122.547 35.91 121.747 35.15C120.967 34.41 120.347 33.48 119.887 32.36C119.427 31.22 119.197 29.89 119.197 28.37C119.197 26.65 119.457 25.17 119.977 23.93C120.517 22.67 121.227 21.64 122.107 20.84C122.987 20.02 123.967 19.41 125.047 19.01C126.127 18.61 127.207 18.41 128.287 18.41C128.927 18.41 129.537 18.46 130.117 18.56C130.697 18.64 131.237 18.76 131.737 18.92C131.797 17.46 131.867 15.99 131.947 14.51C132.047 13.03 132.157 11.57 132.277 10.13L137.317 10.46C137.157 12.12 137.017 13.91 136.897 15.83C136.777 17.73 136.687 19.67 136.627 21.65C136.587 23.63 136.567 25.56 136.567 27.44C136.567 29.2 136.587 30.88 136.627 32.48C136.687 34.06 136.757 35.5 136.837 36.8L131.647 37.19C131.627 36.81 131.617 36.44 131.617 36.08C131.037 36.46 130.397 36.77 129.697 37.01C129.017 37.25 128.277 37.37 127.477 37.37ZM124.027 28.1C124.027 29.14 124.227 29.96 124.627 30.56C125.027 31.14 125.517 31.55 126.097 31.79C126.677 32.03 127.237 32.15 127.777 32.15C128.417 32.15 129.057 32.01 129.697 31.73C130.337 31.45 130.937 30.96 131.497 30.26C131.497 30.02 131.497 29.79 131.497 29.57C131.497 27.95 131.517 26.29 131.557 24.59C130.617 23.77 129.597 23.36 128.497 23.36C128.037 23.36 127.547 23.43 127.027 23.57C126.507 23.71 126.017 23.96 125.557 24.32C125.117 24.66 124.747 25.14 124.447 25.76C124.167 26.36 124.027 27.14 124.027 28.1ZM139.631 15.62C139.631 15.44 139.621 15.26 139.601 15.08C139.601 14.88 139.601 14.66 139.601 14.42C139.601 13.78 139.621 13.1 139.661 12.38C139.701 11.66 139.741 11.05 139.781 10.55L145.121 10.64C145.061 11.32 144.991 12.09 144.911 12.95C144.851 13.81 144.811 14.7 144.791 15.62H139.631ZM139.511 37.1C139.451 35.86 139.411 34.54 139.391 33.14C139.371 31.72 139.361 30.3 139.361 28.88C139.361 27.02 139.381 25.21 139.421 23.45C139.461 21.69 139.511 20.09 139.571 18.65L144.731 18.62C144.651 19.54 144.601 20.68 144.581 22.04C144.561 23.38 144.551 24.79 144.551 26.27C144.551 27.73 144.561 29.17 144.581 30.59C144.601 32.01 144.621 33.3 144.641 34.46C144.681 35.6 144.711 36.48 144.731 37.1H139.511ZM147.511 37.34C147.591 35.68 147.651 34.02 147.691 32.36C147.731 30.7 147.751 29.06 147.751 27.44C147.731 25.96 147.701 24.5 147.661 23.06C147.641 21.6 147.591 20.19 147.511 18.83L152.551 18.68C152.571 19.42 152.601 20.18 152.641 20.96C153.281 20.16 154.021 19.52 154.861 19.04C155.721 18.54 156.701 18.29 157.801 18.29C158.221 18.29 158.761 18.35 159.421 18.47C160.081 18.59 160.751 18.82 161.431 19.16L160.861 24.23C160.361 23.93 159.821 23.72 159.241 23.6C158.681 23.46 158.211 23.39 157.831 23.39C156.551 23.39 155.461 23.97 154.561 25.13C153.681 26.27 153.081 27.86 152.761 29.9C152.761 31.3 152.741 32.64 152.701 33.92C152.681 35.18 152.631 36.32 152.551 37.34H147.511ZM171.571 37.46C169.971 37.46 168.571 37.2 167.371 36.68C166.191 36.16 165.211 35.45 164.431 34.55C163.651 33.63 163.071 32.58 162.691 31.4C162.311 30.22 162.121 28.98 162.121 27.68C162.121 26.36 162.351 25.14 162.811 24.02C163.291 22.88 163.941 21.89 164.761 21.05C165.601 20.21 166.581 19.56 167.701 19.1C168.821 18.62 170.041 18.38 171.361 18.38C172.741 18.38 174.021 18.62 175.201 19.1C176.381 19.58 177.411 20.25 178.291 21.11C179.171 21.97 179.851 22.98 180.331 24.14C180.831 25.3 181.081 26.56 181.081 27.92C181.081 30.94 180.251 33.29 178.591 34.97C176.931 36.63 174.591 37.46 171.571 37.46ZM171.541 32.6C173.001 32.6 174.111 32.19 174.871 31.37C175.651 30.55 176.041 29.37 176.041 27.83C176.041 26.45 175.621 25.34 174.781 24.5C173.941 23.66 172.841 23.24 171.481 23.24C170.661 23.24 169.911 23.46 169.231 23.9C168.551 24.32 168.001 24.89 167.581 25.61C167.181 26.31 166.981 27.09 166.981 27.95C166.981 28.71 167.131 29.45 167.431 30.17C167.751 30.89 168.251 31.48 168.931 31.94C169.611 32.38 170.481 32.6 171.541 32.6ZM183.492 37.07C183.492 35.85 183.492 34.29 183.492 32.39C183.512 30.47 183.532 28.34 183.552 26C183.592 23.66 183.642 21.2 183.702 18.62C183.782 16.04 183.872 13.46 183.972 10.88L189.072 10.85C188.992 11.99 188.912 13.38 188.832 15.02C188.752 16.66 188.682 18.42 188.622 20.3C190.002 19.02 191.582 18.38 193.362 18.38C194.582 18.38 195.592 18.6 196.392 19.04C197.212 19.48 197.872 20.06 198.372 20.78C198.872 21.48 199.252 22.25 199.512 23.09C199.772 23.93 199.952 24.76 200.052 25.58C200.152 26.38 200.202 27.09 200.202 27.71C200.202 29.03 200.192 30.34 200.172 31.64C200.152 32.94 200.132 34.08 200.112 35.06C200.112 36.04 200.112 36.73 200.112 37.13L194.862 37.16C194.942 36.38 194.992 35.48 195.012 34.46C195.052 33.44 195.072 32.39 195.072 31.31C195.092 30.21 195.102 29.17 195.102 28.19C195.102 24.95 194.342 23.33 192.822 23.33C192.362 23.33 191.852 23.45 191.292 23.69C190.732 23.93 190.192 24.31 189.672 24.83C189.172 25.35 188.772 26.04 188.472 26.9C188.452 28.22 188.442 29.5 188.442 30.74C188.442 31.88 188.452 32.95 188.472 33.95C188.512 34.93 188.542 35.92 188.562 36.92L183.492 37.07ZM203.149 37.34C203.129 37.04 203.109 36.54 203.089 35.84C203.069 35.16 203.049 34.34 203.029 33.38C203.009 32.42 202.999 31.39 202.999 30.29C202.999 29.17 202.999 28.05 202.999 26.93C202.999 25.69 202.999 24.51 202.999 23.39C203.019 22.27 203.029 21.3 203.029 20.48C203.049 19.66 203.059 19.07 203.059 18.71L208.129 18.62C208.089 19.18 208.059 19.86 208.039 20.66C208.559 19.96 209.159 19.41 209.839 19.01C210.519 18.61 211.299 18.41 212.179 18.41C213.239 18.41 214.109 18.72 214.789 19.34C215.489 19.96 216.059 20.77 216.499 21.77C217.939 19.53 219.709 18.41 221.809 18.41C222.989 18.41 223.959 18.67 224.719 19.19C225.499 19.69 226.109 20.37 226.549 21.23C226.989 22.09 227.309 23.06 227.509 24.14C227.729 25.22 227.869 26.33 227.929 27.47C227.989 28.61 228.019 29.71 228.019 30.77C228.019 32.03 227.999 33.18 227.959 34.22C227.919 35.26 227.909 36.25 227.929 37.19H222.739C222.739 36.71 222.739 36.1 222.739 35.36C222.739 34.64 222.739 33.91 222.739 33.17C222.759 32.41 222.769 31.76 222.769 31.22C222.769 30.66 222.769 30.33 222.769 30.23C222.769 29.03 222.739 27.9 222.679 26.84C222.619 25.78 222.469 24.92 222.229 24.26C221.989 23.6 221.599 23.27 221.059 23.27C220.539 23.27 220.079 23.52 219.679 24.02C219.279 24.52 218.919 25.17 218.599 25.97C218.299 26.77 218.039 27.62 217.819 28.52C217.859 29.3 217.889 30.08 217.909 30.86C217.929 31.62 217.939 32.36 217.939 33.08C217.939 33.9 217.929 34.61 217.909 35.21C217.909 35.83 217.909 36.49 217.909 37.19H212.869C212.869 35.57 212.859 34.14 212.839 32.9C212.819 31.66 212.779 30.46 212.719 29.3C212.619 27.22 212.399 25.7 212.059 24.74C211.739 23.76 211.289 23.27 210.709 23.27C210.069 23.27 209.529 23.66 209.089 24.44C208.649 25.2 208.289 26.13 208.009 27.23C208.029 28.83 208.069 30.5 208.129 32.24C208.189 33.98 208.269 35.66 208.369 37.28L203.149 37.34ZM238.159 37.37C236.659 37.37 235.299 36.98 234.079 36.2C232.859 35.44 231.889 34.41 231.169 33.11C230.469 31.79 230.119 30.32 230.119 28.7C230.119 27.18 230.399 25.81 230.959 24.59C231.519 23.35 232.279 22.29 233.239 21.41C234.219 20.53 235.329 19.86 236.569 19.4C237.809 18.92 239.109 18.68 240.469 18.68C241.609 18.68 242.729 18.84 243.829 19.16C243.909 18.74 243.979 18.32 244.039 17.9L249.169 18.77C249.029 19.15 248.889 19.72 248.749 20.48C248.609 21.24 248.489 22.09 248.389 23.03C248.309 23.97 248.239 24.91 248.179 25.85C248.119 26.79 248.089 27.64 248.089 28.4C248.089 29.02 248.129 29.63 248.209 30.23C248.309 30.81 248.509 31.29 248.809 31.67C249.109 32.03 249.569 32.21 250.189 32.21H250.609L249.859 37.43C248.539 37.43 247.449 37.2 246.589 36.74C245.729 36.3 245.039 35.7 244.519 34.94C243.659 35.9 242.679 36.54 241.579 36.86C240.479 37.2 239.339 37.37 238.159 37.37ZM235.039 29.3C235.139 30.26 235.529 31.03 236.209 31.61C236.909 32.17 237.789 32.45 238.849 32.45C239.869 32.45 240.719 32.18 241.399 31.64C242.079 31.08 242.639 30.32 243.079 29.36C243.059 29.04 243.049 28.71 243.049 28.37C243.049 27.67 243.069 26.95 243.109 26.21C243.149 25.47 243.199 24.74 243.259 24.02C242.419 23.7 241.539 23.54 240.619 23.54C239.539 23.54 238.569 23.76 237.709 24.2C236.869 24.62 236.209 25.21 235.729 25.97C235.249 26.73 235.009 27.61 235.009 28.61C235.009 28.73 235.009 28.85 235.009 28.97C235.009 29.09 235.019 29.2 235.039 29.3ZM252.725 37.16C252.665 35.4 252.615 33.77 252.575 32.27C252.555 30.77 252.545 29.29 252.545 27.83C252.545 26.37 252.555 24.91 252.575 23.45C252.615 21.97 252.675 20.39 252.755 18.71H257.825C257.745 19.61 257.675 20.52 257.615 21.44C258.295 20.58 259.105 19.87 260.045 19.31C260.985 18.73 262.095 18.44 263.375 18.44C264.635 18.44 265.665 18.65 266.465 19.07C267.285 19.49 267.925 20.07 268.385 20.81C268.865 21.55 269.205 22.4 269.405 23.36C269.625 24.3 269.765 25.32 269.825 26.42C269.885 27.5 269.915 28.59 269.915 29.69C269.915 30.89 269.895 32.04 269.855 33.14C269.815 34.24 269.775 35.16 269.735 35.9C269.695 36.64 269.665 37.08 269.645 37.22H264.605C264.645 36.4 264.685 35.53 264.725 34.61C264.765 33.67 264.805 32.75 264.845 31.85C264.885 30.93 264.905 30.1 264.905 29.36C264.905 25.1 264.215 22.97 262.835 22.97C261.695 22.97 260.655 23.47 259.715 24.47C258.795 25.45 258.025 26.69 257.405 28.19C257.405 28.39 257.405 28.59 257.405 28.79C257.405 29.75 257.405 30.75 257.405 31.79C257.425 32.81 257.445 33.79 257.465 34.73C257.505 35.65 257.535 36.45 257.555 37.13L252.725 37.16Z" fill="#160442"/>
<path d="M75.9363 27.5C75.9363 31.366 72.8023 34.5 68.9363 34.5C65.0703 34.5 61.9363 31.366 61.9363 27.5C61.9363 23.634 65.0703 20.5 68.9363 20.5C72.8023 20.5 75.9363 23.634 75.9363 27.5Z" fill="#642DFB"/>
</svg>
