<svg width="14" height="26" viewBox="0 0 14 26" fill="none" xmlns="http://www.w3.org/2000/svg">
<path d="M11 17C11 19.7614 8.76142 22 6 22C3.23858 22 1 19.7614 1 17C1 14.2386 3.23858 12 6 12C8.76142 12 11 14.2386 11 17Z" fill="#642DFB"/>
<path d="M5.382 22.422C4.482 22.422 3.666 22.188 2.934 21.72C2.202 21.264 1.62 20.646 1.188 19.866C0.768 19.074 0.558 18.192 0.558 17.22C0.558 16.308 0.726 15.486 1.062 14.754C1.398 14.01 1.854 13.374 2.43 12.846C3.018 12.318 3.684 11.916 4.428 11.64C5.172 11.352 5.952 11.208 6.768 11.208C7.452 11.208 8.124 11.304 8.784 11.496C8.832 11.244 8.874 10.992 8.91 10.74L11.988 11.262C11.904 11.49 11.82 11.832 11.736 12.288C11.652 12.744 11.58 13.254 11.52 13.818C11.472 14.382 11.43 14.946 11.394 15.51C11.358 16.074 11.34 16.584 11.34 17.04C11.34 17.412 11.364 17.778 11.412 18.138C11.472 18.486 11.592 18.774 11.772 19.002C11.952 19.218 12.228 19.326 12.6 19.326H12.852L12.402 22.458C11.61 22.458 10.956 22.32 10.44 22.044C9.924 21.78 9.51 21.42 9.198 20.964C8.682 21.54 8.094 21.924 7.434 22.116C6.774 22.32 6.09 22.422 5.382 22.422ZM3.51 17.58C3.57 18.156 3.804 18.618 4.212 18.966C4.632 19.302 5.16 19.47 5.796 19.47C6.408 19.47 6.918 19.308 7.326 18.984C7.734 18.648 8.07 18.192 8.334 17.616C8.322 17.424 8.316 17.226 8.316 17.022C8.316 16.602 8.328 16.17 8.352 15.726C8.376 15.282 8.406 14.844 8.442 14.412C7.938 14.22 7.41 14.124 6.858 14.124C6.21 14.124 5.628 14.256 5.112 14.52C4.608 14.772 4.212 15.126 3.924 15.582C3.636 16.038 3.492 16.566 3.492 17.166C3.492 17.238 3.492 17.31 3.492 17.382C3.492 17.454 3.498 17.52 3.51 17.58Z" fill="black"/>
</svg>
